<svg xmlns="http://www.w3.org/2000/svg" xmlns:xlink="http://www.w3.org/1999/xlink" width="1400" zoomAndPan="magnify" viewBox="0 0 1050 299.999988" height="400" preserveAspectRatio="xMidYMid meet" version="1.0"><defs><g/></defs><g fill="#000000" fill-opacity="1"><g transform="translate(-3.636654, 180.457001)"><g><path d="M 118.296875 -24.609375 L 118.296875 0 L 15.703125 0 L 15.703125 -132.484375 L 115.828125 -132.484375 L 115.828125 -107.875 L 46.1875 -107.875 L 46.1875 -79.109375 L 107.6875 -79.109375 L 107.6875 -55.265625 L 46.1875 -55.265625 L 46.1875 -24.609375 Z M 118.296875 -24.609375 "/></g></g></g><g fill="#000000" fill-opacity="1"><g transform="translate(125.435412, 180.457001)"><g><path d="M 114.6875 -101.828125 L 71.734375 0 L 41.265625 0 L -1.515625 -101.828125 L 28.953125 -101.828125 L 57.15625 -32.546875 L 86.3125 -101.828125 Z M 114.6875 -101.828125 "/></g></g></g><g fill="#000000" fill-opacity="1"><g transform="translate(240.691838, 180.457001)"><g><path d="M 62.078125 1.515625 C 51.347656 1.515625 41.722656 -0.722656 33.203125 -5.203125 C 24.691406 -9.679688 18.039062 -15.894531 13.25 -23.84375 C 8.457031 -31.789062 6.0625 -40.8125 6.0625 -50.90625 C 6.0625 -61 8.457031 -70.019531 13.25 -77.96875 C 18.039062 -85.925781 24.691406 -92.144531 33.203125 -96.625 C 41.722656 -101.101562 51.347656 -103.34375 62.078125 -103.34375 C 72.804688 -103.34375 82.394531 -101.101562 90.84375 -96.625 C 99.300781 -92.144531 105.925781 -85.925781 110.71875 -77.96875 C 115.507812 -70.019531 117.90625 -61 117.90625 -50.90625 C 117.90625 -40.8125 115.507812 -31.789062 110.71875 -23.84375 C 105.925781 -15.894531 99.300781 -9.679688 90.84375 -5.203125 C 82.394531 -0.722656 72.804688 1.515625 62.078125 1.515625 Z M 62.078125 -22.71875 C 69.648438 -22.71875 75.863281 -25.269531 80.71875 -30.375 C 85.582031 -35.488281 88.015625 -42.332031 88.015625 -50.90625 C 88.015625 -59.488281 85.582031 -66.332031 80.71875 -71.4375 C 75.863281 -76.550781 69.648438 -79.109375 62.078125 -79.109375 C 54.503906 -79.109375 48.253906 -76.550781 43.328125 -71.4375 C 38.410156 -66.332031 35.953125 -59.488281 35.953125 -50.90625 C 35.953125 -42.332031 38.410156 -35.488281 43.328125 -30.375 C 48.253906 -25.269531 54.503906 -22.71875 62.078125 -22.71875 Z M 62.078125 -22.71875 "/></g></g></g><g fill="#000000" fill-opacity="1"><g transform="translate(366.735816, 180.457001)"><g><path d="M 13.625 -140.4375 L 43.15625 -140.4375 L 43.15625 0 L 13.625 0 Z M 13.625 -140.4375 "/></g></g></g><g fill="#000000" fill-opacity="1"><g transform="translate(425.783484, 180.457001)"><g><path d="M 116.203125 -101.828125 L 116.203125 0 L 88.203125 0 L 88.203125 -12.109375 C 84.285156 -7.691406 79.613281 -4.316406 74.1875 -1.984375 C 68.757812 0.347656 62.894531 1.515625 56.59375 1.515625 C 43.21875 1.515625 32.617188 -2.332031 24.796875 -10.03125 C 16.972656 -17.726562 13.0625 -29.144531 13.0625 -44.28125 L 13.0625 -101.828125 L 42.578125 -101.828125 L 42.578125 -48.640625 C 42.578125 -32.234375 49.457031 -24.03125 63.21875 -24.03125 C 70.28125 -24.03125 75.957031 -26.332031 80.25 -30.9375 C 84.539062 -35.550781 86.6875 -42.398438 86.6875 -51.484375 L 86.6875 -101.828125 Z M 116.203125 -101.828125 "/></g></g></g><g fill="#000000" fill-opacity="1"><g transform="translate(557.883638, 180.457001)"><g><path d="M 79.296875 -4.921875 C 76.398438 -2.773438 72.835938 -1.164062 68.609375 -0.09375 C 64.378906 0.976562 59.929688 1.515625 55.265625 1.515625 C 43.148438 1.515625 33.78125 -1.570312 27.15625 -7.75 C 20.53125 -13.9375 17.21875 -23.023438 17.21875 -35.015625 L 17.21875 -76.84375 L 1.515625 -76.84375 L 1.515625 -99.546875 L 17.21875 -99.546875 L 17.21875 -124.34375 L 46.75 -124.34375 L 46.75 -99.546875 L 72.109375 -99.546875 L 72.109375 -76.84375 L 46.75 -76.84375 L 46.75 -35.390625 C 46.75 -31.097656 47.851562 -27.785156 50.0625 -25.453125 C 52.269531 -23.117188 55.390625 -21.953125 59.421875 -21.953125 C 64.097656 -21.953125 68.078125 -23.210938 71.359375 -25.734375 Z M 79.296875 -4.921875 "/></g></g></g><g fill="#000000" fill-opacity="1"><g transform="translate(642.291494, 180.457001)"><g><path d="M 13.625 -101.828125 L 43.15625 -101.828125 L 43.15625 0 L 13.625 0 Z M 28.390625 -116.015625 C 22.960938 -116.015625 18.546875 -117.59375 15.140625 -120.75 C 11.734375 -123.90625 10.03125 -127.816406 10.03125 -132.484375 C 10.03125 -137.148438 11.734375 -141.0625 15.140625 -144.21875 C 18.546875 -147.375 22.960938 -148.953125 28.390625 -148.953125 C 33.816406 -148.953125 38.234375 -147.4375 41.640625 -144.40625 C 45.046875 -141.382812 46.75 -137.597656 46.75 -133.046875 C 46.75 -128.128906 45.046875 -124.0625 41.640625 -120.84375 C 38.234375 -117.625 33.816406 -116.015625 28.390625 -116.015625 Z M 28.390625 -116.015625 "/></g></g></g><g fill="#000000" fill-opacity="1"><g transform="translate(701.339187, 180.457001)"><g><path d="M 114.6875 -101.828125 L 71.734375 0 L 41.265625 0 L -1.515625 -101.828125 L 28.953125 -101.828125 L 57.15625 -32.546875 L 86.3125 -101.828125 Z M 114.6875 -101.828125 "/></g></g></g><g fill="#000000" fill-opacity="1"><g transform="translate(816.595601, 180.457001)"><g><path d="M 54.703125 -103.34375 C 70.472656 -103.34375 82.582031 -99.585938 91.03125 -92.078125 C 99.488281 -84.566406 103.71875 -73.242188 103.71875 -58.109375 L 103.71875 0 L 76.078125 0 L 76.078125 -12.6875 C 70.523438 -3.21875 60.179688 1.515625 45.046875 1.515625 C 37.222656 1.515625 30.441406 0.191406 24.703125 -2.453125 C 18.960938 -5.109375 14.578125 -8.769531 11.546875 -13.4375 C 8.515625 -18.101562 7 -23.40625 7 -29.34375 C 7 -38.800781 10.5625 -46.242188 17.6875 -51.671875 C 24.820312 -57.097656 35.832031 -59.8125 50.71875 -59.8125 L 74.1875 -59.8125 C 74.1875 -66.238281 72.226562 -71.1875 68.3125 -74.65625 C 64.40625 -78.132812 58.539062 -79.875 50.71875 -79.875 C 45.289062 -79.875 39.957031 -79.019531 34.71875 -77.3125 C 29.488281 -75.613281 25.046875 -73.3125 21.390625 -70.40625 L 10.78125 -91.03125 C 16.332031 -94.945312 22.988281 -97.976562 30.75 -100.125 C 38.507812 -102.269531 46.492188 -103.34375 54.703125 -103.34375 Z M 52.421875 -18.359375 C 57.472656 -18.359375 61.953125 -19.523438 65.859375 -21.859375 C 69.773438 -24.191406 72.550781 -27.628906 74.1875 -32.171875 L 74.1875 -42.578125 L 53.9375 -42.578125 C 41.820312 -42.578125 35.765625 -38.601562 35.765625 -30.65625 C 35.765625 -26.875 37.25 -23.878906 40.21875 -21.671875 C 43.1875 -19.460938 47.253906 -18.359375 52.421875 -18.359375 Z M 52.421875 -18.359375 "/></g></g></g><g fill="#bf9000" fill-opacity="1"><g transform="translate(932.970943, 123.05988)"><g><path d="M 78.328125 0 L 56 -31.21875 L 32.921875 0 L 0.75 0 L 39.921875 -51.265625 L 2.078125 -101.78125 L 35.1875 -101.78125 L 56.75 -72.078125 L 78.890625 -101.78125 L 110.296875 -101.78125 L 72.453125 -52.03125 L 111.8125 0 Z M 78.328125 0 "/></g></g></g><g fill="#90aadb" fill-opacity="1"><g transform="translate(3.72469, 269.83697)"><g><path d="M 54.453125 -29.65625 C 54.453125 -20.050781 51.84375 -12.707031 46.625 -7.625 C 41.414062 -2.539062 33.914062 0 24.125 0 L 8 0 L 8 -58.1875 L 25.828125 -58.1875 C 34.878906 -58.1875 41.910156 -55.675781 46.921875 -50.65625 C 51.941406 -45.644531 54.453125 -38.644531 54.453125 -29.65625 Z M 47.28125 -29.421875 C 47.28125 -37.003906 45.375 -42.71875 41.5625 -46.5625 C 37.757812 -50.414062 32.101562 -52.34375 24.59375 -52.34375 L 14.765625 -52.34375 L 14.765625 -5.84375 L 23 -5.84375 C 31.070312 -5.84375 37.132812 -7.828125 41.1875 -11.796875 C 45.25 -15.765625 47.28125 -21.640625 47.28125 -29.421875 Z M 47.28125 -29.421875 "/></g></g></g><g fill="#90aadb" fill-opacity="1"><g transform="translate(71.546349, 269.83697)"><g><path d="M 44.578125 0 L 37.328125 -18.515625 L 14.015625 -18.515625 L 6.84375 0 L 0 0 L 23 -58.4375 L 28.703125 -58.4375 L 51.578125 0 Z M 35.21875 -24.59375 L 28.453125 -42.625 C 27.578125 -44.90625 26.675781 -47.707031 25.75 -51.03125 C 25.164062 -48.476562 24.332031 -45.675781 23.25 -42.625 L 16.40625 -24.59375 Z M 35.21875 -24.59375 "/></g></g></g><g fill="#90aadb" fill-opacity="1"><g transform="translate(131.526906, 269.83697)"><g><path d="M 25.90625 0 L 19.140625 0 L 19.140625 -52.1875 L 0.71875 -52.1875 L 0.71875 -58.1875 L 44.34375 -58.1875 L 44.34375 -52.1875 L 25.90625 -52.1875 Z M 25.90625 0 "/></g></g></g><g fill="#90aadb" fill-opacity="1"><g transform="translate(185.019642, 269.83697)"><g><path d="M 44.578125 0 L 37.328125 -18.515625 L 14.015625 -18.515625 L 6.84375 0 L 0 0 L 23 -58.4375 L 28.703125 -58.4375 L 51.578125 0 Z M 35.21875 -24.59375 L 28.453125 -42.625 C 27.578125 -44.90625 26.675781 -47.707031 25.75 -51.03125 C 25.164062 -48.476562 24.332031 -45.675781 23.25 -42.625 L 16.40625 -24.59375 Z M 35.21875 -24.59375 "/></g></g></g><g fill="#90aadb" fill-opacity="1"><g transform="translate(274.571622, 269.83697)"><g><path d="M 33.75 0 L 14.015625 -51.578125 L 13.6875 -51.578125 C 14.0625 -47.492188 14.25 -42.640625 14.25 -37.015625 L 14.25 0 L 8 0 L 8 -58.1875 L 18.1875 -58.1875 L 36.625 -10.1875 L 36.9375 -10.1875 L 55.53125 -58.1875 L 65.640625 -58.1875 L 65.640625 0 L 58.875 0 L 58.875 -37.5 C 58.875 -41.789062 59.054688 -46.457031 59.421875 -51.5 L 59.109375 -51.5 L 39.203125 0 Z M 33.75 0 "/></g></g></g><g fill="#90aadb" fill-opacity="1"><g transform="translate(356.562994, 269.83697)"><g><path d="M 44.578125 0 L 37.328125 -18.515625 L 14.015625 -18.515625 L 6.84375 0 L 0 0 L 23 -58.4375 L 28.703125 -58.4375 L 51.578125 0 Z M 35.21875 -24.59375 L 28.453125 -42.625 C 27.578125 -44.90625 26.675781 -47.707031 25.75 -51.03125 C 25.164062 -48.476562 24.332031 -45.675781 23.25 -42.625 L 16.40625 -24.59375 Z M 35.21875 -24.59375 "/></g></g></g><g fill="#90aadb" fill-opacity="1"><g transform="translate(416.543534, 269.83697)"><g><path d="M 53.453125 0 L 45.734375 0 L 13.9375 -48.84375 L 13.609375 -48.84375 C 14.035156 -43.101562 14.25 -37.847656 14.25 -33.078125 L 14.25 0 L 8 0 L 8 -58.1875 L 15.640625 -58.1875 L 47.359375 -9.546875 L 47.6875 -9.546875 C 47.632812 -10.265625 47.515625 -12.566406 47.328125 -16.453125 C 47.140625 -20.347656 47.070312 -23.128906 47.125 -24.796875 L 47.125 -58.1875 L 53.453125 -58.1875 Z M 53.453125 0 "/></g></g></g><g fill="#90aadb" fill-opacity="1"><g transform="translate(486.395106, 269.83697)"><g><path d="M 44.578125 0 L 37.328125 -18.515625 L 14.015625 -18.515625 L 6.84375 0 L 0 0 L 23 -58.4375 L 28.703125 -58.4375 L 51.578125 0 Z M 35.21875 -24.59375 L 28.453125 -42.625 C 27.578125 -44.90625 26.675781 -47.707031 25.75 -51.03125 C 25.164062 -48.476562 24.332031 -45.675781 23.25 -42.625 L 16.40625 -24.59375 Z M 35.21875 -24.59375 "/></g></g></g><g fill="#90aadb" fill-opacity="1"><g transform="translate(546.375646, 269.83697)"><g><path d="M 33.59375 -30.484375 L 53.375 -30.484375 L 53.375 -2.1875 C 50.300781 -1.207031 47.171875 -0.46875 43.984375 0.03125 C 40.796875 0.539062 37.109375 0.796875 32.921875 0.796875 C 24.109375 0.796875 17.242188 -1.820312 12.328125 -7.0625 C 7.421875 -12.300781 4.96875 -19.644531 4.96875 -29.09375 C 4.96875 -35.144531 6.179688 -40.445312 8.609375 -45 C 11.046875 -49.550781 14.546875 -53.023438 19.109375 -55.421875 C 23.671875 -57.828125 29.015625 -59.03125 35.140625 -59.03125 C 41.347656 -59.03125 47.132812 -57.890625 52.5 -55.609375 L 49.875 -49.640625 C 44.613281 -51.867188 39.554688 -52.984375 34.703125 -52.984375 C 27.617188 -52.984375 22.085938 -50.867188 18.109375 -46.640625 C 14.128906 -42.421875 12.140625 -36.570312 12.140625 -29.09375 C 12.140625 -21.238281 14.054688 -15.28125 17.890625 -11.21875 C 21.722656 -7.164062 27.351562 -5.140625 34.78125 -5.140625 C 38.820312 -5.140625 42.765625 -5.601562 46.609375 -6.53125 L 46.609375 -24.4375 L 33.59375 -24.4375 Z M 33.59375 -30.484375 "/></g></g></g><g fill="#90aadb" fill-opacity="1"><g transform="translate(614.117706, 269.83697)"><g><path d="M 40.4375 0 L 8 0 L 8 -58.1875 L 40.4375 -58.1875 L 40.4375 -52.1875 L 14.765625 -52.1875 L 14.765625 -33.4375 L 38.890625 -33.4375 L 38.890625 -27.46875 L 14.765625 -27.46875 L 14.765625 -6.046875 L 40.4375 -6.046875 Z M 40.4375 0 "/></g></g></g><g fill="#90aadb" fill-opacity="1"><g transform="translate(667.849269, 269.83697)"><g><path d="M 33.75 0 L 14.015625 -51.578125 L 13.6875 -51.578125 C 14.0625 -47.492188 14.25 -42.640625 14.25 -37.015625 L 14.25 0 L 8 0 L 8 -58.1875 L 18.1875 -58.1875 L 36.625 -10.1875 L 36.9375 -10.1875 L 55.53125 -58.1875 L 65.640625 -58.1875 L 65.640625 0 L 58.875 0 L 58.875 -37.5 C 58.875 -41.789062 59.054688 -46.457031 59.421875 -51.5 L 59.109375 -51.5 L 39.203125 0 Z M 33.75 0 "/></g></g></g><g fill="#90aadb" fill-opacity="1"><g transform="translate(749.840641, 269.83697)"><g><path d="M 40.4375 0 L 8 0 L 8 -58.1875 L 40.4375 -58.1875 L 40.4375 -52.1875 L 14.765625 -52.1875 L 14.765625 -33.4375 L 38.890625 -33.4375 L 38.890625 -27.46875 L 14.765625 -27.46875 L 14.765625 -6.046875 L 40.4375 -6.046875 Z M 40.4375 0 "/></g></g></g><g fill="#90aadb" fill-opacity="1"><g transform="translate(803.572158, 269.83697)"><g><path d="M 53.453125 0 L 45.734375 0 L 13.9375 -48.84375 L 13.609375 -48.84375 C 14.035156 -43.101562 14.25 -37.847656 14.25 -33.078125 L 14.25 0 L 8 0 L 8 -58.1875 L 15.640625 -58.1875 L 47.359375 -9.546875 L 47.6875 -9.546875 C 47.632812 -10.265625 47.515625 -12.566406 47.328125 -16.453125 C 47.140625 -20.347656 47.070312 -23.128906 47.125 -24.796875 L 47.125 -58.1875 L 53.453125 -58.1875 Z M 53.453125 0 "/></g></g></g><g fill="#90aadb" fill-opacity="1"><g transform="translate(873.423776, 269.83697)"><g><path d="M 25.90625 0 L 19.140625 0 L 19.140625 -52.1875 L 0.71875 -52.1875 L 0.71875 -58.1875 L 44.34375 -58.1875 L 44.34375 -52.1875 L 25.90625 -52.1875 Z M 25.90625 0 "/></g></g></g></svg>