<svg xmlns="http://www.w3.org/2000/svg" xmlns:xlink="http://www.w3.org/1999/xlink" width="1564" zoomAndPan="magnify" viewBox="0 0 1173 299.999988" height="400" preserveAspectRatio="xMidYMid meet" version="1.0"><defs><g/></defs><g fill="#13191a" fill-opacity="1"><g transform="translate(106.918898, 188.780007)"><g><path d="M 111.28125 -23.140625 L 111.28125 0 L 14.78125 0 L 14.78125 -124.640625 L 108.96875 -124.640625 L 108.96875 -101.484375 L 43.4375 -101.484375 L 43.4375 -74.421875 L 101.3125 -74.421875 L 101.3125 -51.984375 L 43.4375 -51.984375 L 43.4375 -23.140625 Z M 111.28125 -23.140625 "/></g></g></g><g fill="#13191a" fill-opacity="1"><g transform="translate(228.349134, 188.780007)"><g><path d="M 107.890625 -95.796875 L 67.484375 0 L 38.8125 0 L -1.421875 -95.796875 L 27.234375 -95.796875 L 53.765625 -30.625 L 81.1875 -95.796875 Z M 107.890625 -95.796875 "/></g></g></g><g fill="#13191a" fill-opacity="1"><g transform="translate(336.781697, 188.780007)"><g><path d="M 58.40625 1.421875 C 48.3125 1.421875 39.257812 -0.679688 31.25 -4.890625 C 23.238281 -9.109375 16.976562 -14.957031 12.46875 -22.4375 C 7.957031 -29.914062 5.703125 -38.398438 5.703125 -47.890625 C 5.703125 -57.390625 7.957031 -65.878906 12.46875 -73.359375 C 16.976562 -80.835938 23.238281 -86.679688 31.25 -90.890625 C 39.257812 -95.109375 48.3125 -97.21875 58.40625 -97.21875 C 68.488281 -97.21875 77.503906 -95.109375 85.453125 -90.890625 C 93.410156 -86.679688 99.644531 -80.835938 104.15625 -73.359375 C 108.664062 -65.878906 110.921875 -57.390625 110.921875 -47.890625 C 110.921875 -38.398438 108.664062 -29.914062 104.15625 -22.4375 C 99.644531 -14.957031 93.410156 -9.109375 85.453125 -4.890625 C 77.503906 -0.679688 68.488281 1.421875 58.40625 1.421875 Z M 58.40625 -21.359375 C 65.519531 -21.359375 71.363281 -23.757812 75.9375 -28.5625 C 80.507812 -33.375 82.796875 -39.816406 82.796875 -47.890625 C 82.796875 -55.960938 80.507812 -62.398438 75.9375 -67.203125 C 71.363281 -72.015625 65.519531 -74.421875 58.40625 -74.421875 C 51.28125 -74.421875 45.398438 -72.015625 40.765625 -67.203125 C 36.140625 -62.398438 33.828125 -55.960938 33.828125 -47.890625 C 33.828125 -39.816406 36.140625 -33.375 40.765625 -28.5625 C 45.398438 -23.757812 51.28125 -21.359375 58.40625 -21.359375 Z M 58.40625 -21.359375 "/></g></g></g><g fill="#13191a" fill-opacity="1"><g transform="translate(455.363126, 188.780007)"><g><path d="M 12.8125 -132.109375 L 40.59375 -132.109375 L 40.59375 0 L 12.8125 0 Z M 12.8125 -132.109375 "/></g></g></g><g fill="#13191a" fill-opacity="1"><g transform="translate(510.914823, 188.780007)"><g><path d="M 109.328125 -95.796875 L 109.328125 0 L 82.96875 0 L 82.96875 -11.390625 C 79.289062 -7.234375 74.898438 -4.054688 69.796875 -1.859375 C 64.691406 0.328125 59.171875 1.421875 53.234375 1.421875 C 40.648438 1.421875 30.675781 -2.195312 23.3125 -9.4375 C 15.957031 -16.675781 12.28125 -27.414062 12.28125 -41.65625 L 12.28125 -95.796875 L 40.0625 -95.796875 L 40.0625 -45.765625 C 40.0625 -30.328125 46.53125 -22.609375 59.46875 -22.609375 C 66.113281 -22.609375 71.453125 -24.773438 75.484375 -29.109375 C 79.523438 -33.441406 81.546875 -39.878906 81.546875 -48.421875 L 81.546875 -95.796875 Z M 109.328125 -95.796875 "/></g></g></g><g fill="#13191a" fill-opacity="1"><g transform="translate(635.193866, 188.780007)"><g><path d="M 74.609375 -4.625 C 71.867188 -2.613281 68.507812 -1.101562 64.53125 -0.09375 C 60.5625 0.914062 56.378906 1.421875 51.984375 1.421875 C 40.585938 1.421875 31.773438 -1.484375 25.546875 -7.296875 C 19.316406 -13.117188 16.203125 -21.664062 16.203125 -32.9375 L 16.203125 -72.28125 L 1.421875 -72.28125 L 1.421875 -93.65625 L 16.203125 -93.65625 L 16.203125 -116.984375 L 43.984375 -116.984375 L 43.984375 -93.65625 L 67.828125 -93.65625 L 67.828125 -72.28125 L 43.984375 -72.28125 L 43.984375 -33.296875 C 43.984375 -29.253906 45.019531 -26.132812 47.09375 -23.9375 C 49.164062 -21.75 52.101562 -20.65625 55.90625 -20.65625 C 60.300781 -20.65625 64.039062 -21.84375 67.125 -24.21875 Z M 74.609375 -4.625 "/></g></g></g><g fill="#13191a" fill-opacity="1"><g transform="translate(714.604277, 188.780007)"><g><path d="M 12.8125 -95.796875 L 40.59375 -95.796875 L 40.59375 0 L 12.8125 0 Z M 26.703125 -109.140625 C 21.609375 -109.140625 17.457031 -110.625 14.25 -113.59375 C 11.039062 -116.5625 9.4375 -120.242188 9.4375 -124.640625 C 9.4375 -129.023438 11.039062 -132.703125 14.25 -135.671875 C 17.457031 -138.640625 21.609375 -140.125 26.703125 -140.125 C 31.804688 -140.125 35.960938 -138.695312 39.171875 -135.84375 C 42.378906 -133 43.984375 -129.441406 43.984375 -125.171875 C 43.984375 -120.535156 42.378906 -116.703125 39.171875 -113.671875 C 35.960938 -110.648438 31.804688 -109.140625 26.703125 -109.140625 Z M 26.703125 -109.140625 "/></g></g></g><g fill="#13191a" fill-opacity="1"><g transform="translate(770.155998, 188.780007)"><g><path d="M 107.890625 -95.796875 L 67.484375 0 L 38.8125 0 L -1.421875 -95.796875 L 27.234375 -95.796875 L 53.765625 -30.625 L 81.1875 -95.796875 Z M 107.890625 -95.796875 "/></g></g></g><g fill="#13191a" fill-opacity="1"><g transform="translate(878.588549, 188.780007)"><g><path d="M 51.453125 -97.21875 C 66.296875 -97.21875 77.691406 -93.6875 85.640625 -86.625 C 93.585938 -79.5625 97.5625 -68.90625 97.5625 -54.65625 L 97.5625 0 L 71.578125 0 L 71.578125 -11.921875 C 66.347656 -3.023438 56.613281 1.421875 42.375 1.421875 C 35.019531 1.421875 28.640625 0.175781 23.234375 -2.3125 C 17.835938 -4.800781 13.710938 -8.242188 10.859375 -12.640625 C 8.015625 -17.035156 6.59375 -22.019531 6.59375 -27.59375 C 6.59375 -36.5 9.941406 -43.503906 16.640625 -48.609375 C 23.347656 -53.710938 33.707031 -56.265625 47.71875 -56.265625 L 69.796875 -56.265625 C 69.796875 -62.316406 67.953125 -66.972656 64.265625 -70.234375 C 60.585938 -73.503906 55.070312 -75.140625 47.71875 -75.140625 C 42.613281 -75.140625 37.597656 -74.335938 32.671875 -72.734375 C 27.742188 -71.128906 23.5625 -68.960938 20.125 -66.234375 L 10.15625 -85.640625 C 15.375 -89.316406 21.628906 -92.164062 28.921875 -94.1875 C 36.222656 -96.207031 43.734375 -97.21875 51.453125 -97.21875 Z M 49.3125 -17.265625 C 54.0625 -17.265625 58.273438 -18.363281 61.953125 -20.5625 C 65.640625 -22.757812 68.253906 -25.992188 69.796875 -30.265625 L 69.796875 -40.0625 L 50.75 -40.0625 C 39.351562 -40.0625 33.65625 -36.320312 33.65625 -28.84375 C 33.65625 -25.28125 35.046875 -22.457031 37.828125 -20.375 C 40.617188 -18.300781 44.445312 -17.265625 49.3125 -17.265625 Z M 49.3125 -17.265625 "/></g></g></g><g fill="#bf9000" fill-opacity="1"><g transform="translate(985.324368, 118.553737)"><g><path d="M 73.703125 0 L 52.703125 -29.375 L 30.984375 0 L 0.71875 0 L 37.5625 -48.25 L 1.953125 -95.78125 L 33.109375 -95.78125 L 53.40625 -67.828125 L 74.234375 -95.78125 L 103.796875 -95.78125 L 68.1875 -48.953125 L 105.21875 0 Z M 73.703125 0 "/></g></g></g><g fill="#90aadb" fill-opacity="1"><g transform="translate(118.735329, 270.270807)"><g><path d="M 51.0625 -27.8125 C 51.0625 -18.800781 48.613281 -11.910156 43.71875 -7.140625 C 38.832031 -2.378906 31.800781 0 22.625 0 L 7.5 0 L 7.5 -54.578125 L 24.234375 -54.578125 C 32.710938 -54.578125 39.300781 -52.222656 44 -47.515625 C 48.707031 -42.816406 51.0625 -36.25 51.0625 -27.8125 Z M 44.34375 -27.59375 C 44.34375 -34.707031 42.554688 -40.066406 38.984375 -43.671875 C 35.421875 -47.285156 30.117188 -49.09375 23.078125 -49.09375 L 13.84375 -49.09375 L 13.84375 -5.484375 L 21.578125 -5.484375 C 29.140625 -5.484375 34.820312 -7.34375 38.625 -11.0625 C 42.4375 -14.789062 44.34375 -20.300781 44.34375 -27.59375 Z M 44.34375 -27.59375 "/></g></g></g><g fill="#90aadb" fill-opacity="1"><g transform="translate(182.33906, 270.270807)"><g><path d="M 41.8125 0 L 35.015625 -17.359375 L 13.140625 -17.359375 L 6.421875 0 L 0 0 L 21.578125 -54.796875 L 26.921875 -54.796875 L 48.375 0 Z M 33.03125 -23.078125 L 26.6875 -39.984375 C 25.863281 -42.117188 25.019531 -44.742188 24.15625 -47.859375 C 23.601562 -45.472656 22.816406 -42.847656 21.796875 -39.984375 L 15.375 -23.078125 Z M 33.03125 -23.078125 "/></g></g></g><g fill="#90aadb" fill-opacity="1"><g transform="translate(238.589434, 270.270807)"><g><path d="M 24.296875 0 L 17.953125 0 L 17.953125 -48.9375 L 0.671875 -48.9375 L 0.671875 -54.578125 L 41.59375 -54.578125 L 41.59375 -48.9375 L 24.296875 -48.9375 Z M 24.296875 0 "/></g></g></g><g fill="#90aadb" fill-opacity="1"><g transform="translate(288.755558, 270.270807)"><g><path d="M 41.8125 0 L 35.015625 -17.359375 L 13.140625 -17.359375 L 6.421875 0 L 0 0 L 21.578125 -54.796875 L 26.921875 -54.796875 L 48.375 0 Z M 33.03125 -23.078125 L 26.6875 -39.984375 C 25.863281 -42.117188 25.019531 -44.742188 24.15625 -47.859375 C 23.601562 -45.472656 22.816406 -42.847656 21.796875 -39.984375 L 15.375 -23.078125 Z M 33.03125 -23.078125 "/></g></g></g><g fill="#90aadb" fill-opacity="1"><g transform="translate(345.005932, 270.270807)"><g/></g></g><g fill="#90aadb" fill-opacity="1"><g transform="translate(372.738706, 270.270807)"><g><path d="M 31.65625 0 L 13.140625 -48.375 L 12.84375 -48.375 C 13.1875 -44.539062 13.359375 -39.988281 13.359375 -34.71875 L 13.359375 0 L 7.5 0 L 7.5 -54.578125 L 17.0625 -54.578125 L 34.34375 -9.5625 L 34.640625 -9.5625 L 52.078125 -54.578125 L 61.5625 -54.578125 L 61.5625 0 L 55.21875 0 L 55.21875 -35.171875 C 55.21875 -39.203125 55.390625 -43.582031 55.734375 -48.3125 L 55.4375 -48.3125 L 36.765625 0 Z M 31.65625 0 "/></g></g></g><g fill="#90aadb" fill-opacity="1"><g transform="translate(449.630738, 270.270807)"><g><path d="M 41.8125 0 L 35.015625 -17.359375 L 13.140625 -17.359375 L 6.421875 0 L 0 0 L 21.578125 -54.796875 L 26.921875 -54.796875 L 48.375 0 Z M 33.03125 -23.078125 L 26.6875 -39.984375 C 25.863281 -42.117188 25.019531 -44.742188 24.15625 -47.859375 C 23.601562 -45.472656 22.816406 -42.847656 21.796875 -39.984375 L 15.375 -23.078125 Z M 33.03125 -23.078125 "/></g></g></g><g fill="#90aadb" fill-opacity="1"><g transform="translate(505.881123, 270.270807)"><g><path d="M 50.140625 0 L 42.890625 0 L 13.0625 -45.796875 L 12.765625 -45.796875 C 13.160156 -40.421875 13.359375 -35.492188 13.359375 -31.015625 L 13.359375 0 L 7.5 0 L 7.5 -54.578125 L 14.671875 -54.578125 L 44.421875 -8.953125 L 44.71875 -8.953125 C 44.664062 -9.628906 44.550781 -11.789062 44.375 -15.4375 C 44.207031 -19.082031 44.148438 -21.6875 44.203125 -23.25 L 44.203125 -54.578125 L 50.140625 -54.578125 Z M 50.140625 0 "/></g></g></g><g fill="#90aadb" fill-opacity="1"><g transform="translate(571.388528, 270.270807)"><g><path d="M 41.8125 0 L 35.015625 -17.359375 L 13.140625 -17.359375 L 6.421875 0 L 0 0 L 21.578125 -54.796875 L 26.921875 -54.796875 L 48.375 0 Z M 33.03125 -23.078125 L 26.6875 -39.984375 C 25.863281 -42.117188 25.019531 -44.742188 24.15625 -47.859375 C 23.601562 -45.472656 22.816406 -42.847656 21.796875 -39.984375 L 15.375 -23.078125 Z M 33.03125 -23.078125 "/></g></g></g><g fill="#90aadb" fill-opacity="1"><g transform="translate(627.638913, 270.270807)"><g><path d="M 31.5 -28.59375 L 50.0625 -28.59375 L 50.0625 -2.046875 C 47.175781 -1.128906 44.238281 -0.4375 41.25 0.03125 C 38.257812 0.507812 34.800781 0.75 30.875 0.75 C 22.613281 0.75 16.179688 -1.707031 11.578125 -6.625 C 6.972656 -11.539062 4.671875 -18.425781 4.671875 -27.28125 C 4.671875 -32.957031 5.804688 -37.929688 8.078125 -42.203125 C 10.359375 -46.472656 13.640625 -49.734375 17.921875 -51.984375 C 22.203125 -54.234375 27.21875 -55.359375 32.96875 -55.359375 C 38.789062 -55.359375 44.210938 -54.289062 49.234375 -52.15625 L 46.78125 -46.546875 C 41.851562 -48.640625 37.109375 -49.6875 32.546875 -49.6875 C 25.898438 -49.6875 20.710938 -47.707031 16.984375 -43.75 C 13.253906 -39.789062 11.390625 -34.300781 11.390625 -27.28125 C 11.390625 -19.914062 13.1875 -14.328125 16.78125 -10.515625 C 20.375 -6.710938 25.65625 -4.8125 32.625 -4.8125 C 36.40625 -4.8125 40.101562 -5.25 43.71875 -6.125 L 43.71875 -22.921875 L 31.5 -22.921875 Z M 31.5 -28.59375 "/></g></g></g><g fill="#90aadb" fill-opacity="1"><g transform="translate(691.167967, 270.270807)"><g><path d="M 37.921875 0 L 7.5 0 L 7.5 -54.578125 L 37.921875 -54.578125 L 37.921875 -48.9375 L 13.84375 -48.9375 L 13.84375 -31.359375 L 36.46875 -31.359375 L 36.46875 -25.765625 L 13.84375 -25.765625 L 13.84375 -5.671875 L 37.921875 -5.671875 Z M 37.921875 0 "/></g></g></g><g fill="#90aadb" fill-opacity="1"><g transform="translate(741.558075, 270.270807)"><g><path d="M 31.65625 0 L 13.140625 -48.375 L 12.84375 -48.375 C 13.1875 -44.539062 13.359375 -39.988281 13.359375 -34.71875 L 13.359375 0 L 7.5 0 L 7.5 -54.578125 L 17.0625 -54.578125 L 34.34375 -9.5625 L 34.640625 -9.5625 L 52.078125 -54.578125 L 61.5625 -54.578125 L 61.5625 0 L 55.21875 0 L 55.21875 -35.171875 C 55.21875 -39.203125 55.390625 -43.582031 55.734375 -48.3125 L 55.4375 -48.3125 L 36.765625 0 Z M 31.65625 0 "/></g></g></g><g fill="#90aadb" fill-opacity="1"><g transform="translate(818.450106, 270.270807)"><g><path d="M 37.921875 0 L 7.5 0 L 7.5 -54.578125 L 37.921875 -54.578125 L 37.921875 -48.9375 L 13.84375 -48.9375 L 13.84375 -31.359375 L 36.46875 -31.359375 L 36.46875 -25.765625 L 13.84375 -25.765625 L 13.84375 -5.671875 L 37.921875 -5.671875 Z M 37.921875 0 "/></g></g></g><g fill="#90aadb" fill-opacity="1"><g transform="translate(868.840167, 270.270807)"><g><path d="M 50.140625 0 L 42.890625 0 L 13.0625 -45.796875 L 12.765625 -45.796875 C 13.160156 -40.421875 13.359375 -35.492188 13.359375 -31.015625 L 13.359375 0 L 7.5 0 L 7.5 -54.578125 L 14.671875 -54.578125 L 44.421875 -8.953125 L 44.71875 -8.953125 C 44.664062 -9.628906 44.550781 -11.789062 44.375 -15.4375 C 44.207031 -19.082031 44.148438 -21.6875 44.203125 -23.25 L 44.203125 -54.578125 L 50.140625 -54.578125 Z M 50.140625 0 "/></g></g></g><g fill="#90aadb" fill-opacity="1"><g transform="translate(934.347523, 270.270807)"><g><path d="M 24.296875 0 L 17.953125 0 L 17.953125 -48.9375 L 0.671875 -48.9375 L 0.671875 -54.578125 L 41.59375 -54.578125 L 41.59375 -48.9375 L 24.296875 -48.9375 Z M 24.296875 0 "/></g></g></g></svg>